<svg width="40" height="40" viewBox="0 0 40 40" fill="none" xmlns="http://www.w3.org/2000/svg">
<path d="M13.8 2.50752C15.3758 2.42994 16.9262 2.92703 18.163 3.90643C19.3999 4.88582 20.2392 6.28092 20.525 7.83252L22.67 18.29L19.4625 24.5463L24.5112 27.265L24.525 27.3338V27.2338L34.0875 26.3213C34.55 26.2838 34.95 26.6463 34.9375 27.1088V29.8463C34.9375 31.9963 33.2 33.7463 31.0375 33.7463H21.1912L20.2625 34.565L19.3337 33.745H17.7125C17.3842 33.745 17.0592 33.7334 16.7375 33.71L15.6313 34.29L14.9462 33.4513C9.25375 32.2163 5 27.2538 5 21.3075C5 18.5325 5.95 15.9075 7.575 13.795C8.15 13.07 8.3 12.095 7.9875 11.22C7.7125 10.445 7.575 9.58252 7.6125 8.69502C7.68177 7.07622 8.35589 5.54233 9.5016 4.39662C10.6473 3.25091 12.1812 2.57678 13.8 2.50752Z" fill="#1DCC97"/>
<path d="M11.0875 9.85753C11.0875 10.441 10.8557 11.0006 10.4431 11.4132C10.0306 11.8257 9.47098 12.0575 8.8875 12.0575C8.30402 12.0575 7.74444 11.8257 7.33186 11.4132C6.91928 11.0006 6.6875 10.441 6.6875 9.85753C6.6875 9.27406 6.91928 8.71448 7.33186 8.3019C7.74444 7.88932 8.30402 7.65753 8.8875 7.65753C9.47098 7.65753 10.0306 7.88932 10.4431 8.3019C10.8557 8.71448 11.0875 9.27406 11.0875 9.85753ZM14.325 35.62L14.9375 33.4488C15.5242 33.5763 16.125 33.6634 16.74 33.71L16.2 35.62H17.7625C18.275 35.62 18.7 36.045 18.7 36.5575C18.7 37.07 18.275 37.495 17.7625 37.495H10.8875C10.6389 37.495 10.4004 37.3963 10.2246 37.2204C10.0488 37.0446 9.95 36.8062 9.95 36.5575C9.95 36.3089 10.0488 36.0704 10.2246 35.8946C10.4004 35.7188 10.6389 35.62 10.8875 35.62H14.325Z" fill="#E9773A"/>
<path d="M11.05 9.43249L7.53746 11.0325C7.3917 11.0995 7.26827 11.2071 7.18185 11.3422C7.09542 11.4774 7.04965 11.6346 7.04996 11.795V12.095C7.04996 12.445 6.64996 12.645 6.37496 12.445C5.95089 12.1474 5.61229 11.7437 5.39295 11.2743C5.17362 10.8049 5.08121 10.2862 5.12496 9.76999C5.24996 8.28249 6.47496 7.09499 7.96246 7.03249C8.67905 6.99725 9.38454 7.21998 9.95099 7.6603C10.5174 8.10062 10.9073 8.72936 11.05 9.43249ZM12.965 18.16C13.1945 17.0472 13.8008 16.0477 14.6816 15.3299C15.5624 14.6122 16.6638 14.2202 17.8 14.22C20.15 14.22 22.1625 15.8575 22.6375 18.1575L25.0112 29.745H24.75V29.7575C21.9825 29.3875 18.5725 28.8237 16.58 27.0675C14.2012 24.9712 13.455 21.4425 12.965 18.16ZM19.325 33.745V35.62H15.8875C15.6388 35.62 15.4004 35.7188 15.2245 35.8946C15.0487 36.0704 14.95 36.3089 14.95 36.5575C14.95 36.8061 15.0487 37.0446 15.2245 37.2204C15.4004 37.3962 15.6388 37.495 15.8875 37.495H22.7625C23.275 37.495 23.7 37.07 23.7 36.5575C23.7 36.045 23.275 35.62 22.7625 35.62H21.2V33.745H19.325Z" fill="#E9773A"/>
<path d="M24.75 29.7575C18.675 28.945 13.8625 24.1825 12.9625 18.145C12.925 18.3075 12.9 18.4825 12.8875 18.645C12.8375 19.12 12.8125 19.595 12.8125 20.07C12.8125 27.0575 18.0125 32.8325 24.75 33.7325C25.3125 33.7325 25.725 33.22 25.6125 32.67L25.0125 29.745H24.75V29.7575Z" fill="#E154A0"/>
<path d="M14.15 10.8C14.5308 10.8 14.9079 10.725 15.2598 10.5793C15.6116 10.4335 15.9313 10.2199 16.2006 9.95061C16.4699 9.68132 16.6835 9.36163 16.8293 9.00978C16.975 8.65794 17.05 8.28083 17.05 7.9C17.05 7.51917 16.975 7.14206 16.8293 6.79022C16.6835 6.43837 16.4699 6.11868 16.2006 5.84939C15.9313 5.5801 15.6116 5.36649 15.2598 5.22075C14.9079 5.07501 14.5308 5 14.15 5C13.3809 5 12.6432 5.30554 12.0994 5.84939C11.5555 6.39325 11.25 7.13087 11.25 7.9C11.25 8.66913 11.5555 9.40675 12.0994 9.95061C12.6432 10.4945 13.3809 10.8 14.15 10.8Z" fill="#E3F4F9"/>
<path d="M14.15 9.20004C14.4948 9.20004 14.8254 9.06307 15.0692 8.81927C15.313 8.57548 15.45 8.24482 15.45 7.90004C15.45 7.55526 15.313 7.22459 15.0692 6.9808C14.8254 6.737 14.4948 6.60004 14.15 6.60004C13.8052 6.60004 13.4745 6.737 13.2307 6.9808C12.9869 7.22459 12.85 7.55526 12.85 7.90004C12.85 8.24482 12.9869 8.57548 13.2307 8.81927C13.4745 9.06307 13.8052 9.20004 14.15 9.20004Z" fill="#0C1619"/>
</svg>